<svg width="21" height="15" viewBox="0 0 21 15" fill="none" xmlns="http://www.w3.org/2000/svg">
<path d="M1.5 9C2.32843 9 3 8.32843 3 7.5C3 6.67157 2.32843 6 1.5 6C0.671573 6 0 6.67157 0 7.5C0 8.32843 0.671573 9 1.5 9Z" fill="black"/>
<path d="M4.5 9C5.32843 9 6 8.32843 6 7.5C6 6.67157 5.32843 6 4.5 6C3.67157 6 3 6.67157 3 7.5C3 8.32843 3.67157 9 4.5 9Z" fill="black"/>
<path d="M7.5 9C8.32843 9 9 8.32843 9 7.5C9 6.67157 8.32843 6 7.5 6C6.67157 6 6 6.67157 6 7.5C6 8.32843 6.67157 9 7.5 9Z" fill="black"/>
<path d="M10.5 9C11.3284 9 12 8.32843 12 7.5C12 6.67157 11.3284 6 10.5 6C9.67157 6 9 6.67157 9 7.5C9 8.32843 9.67157 9 10.5 9Z" fill="black"/>
<path d="M13.5 9C14.3284 9 15 8.32843 15 7.5C15 6.67157 14.3284 6 13.5 6C12.6716 6 12 6.67157 12 7.5C12 8.32843 12.6716 9 13.5 9Z" fill="black"/>
<path d="M16.5 9C17.3284 9 18 8.32843 18 7.5C18 6.67157 17.3284 6 16.5 6C15.6716 6 15 6.67157 15 7.5C15 8.32843 15.6716 9 16.5 9Z" fill="black"/>
<path d="M19.5 9C20.3284 9 21 8.32843 21 7.5C21 6.67157 20.3284 6 19.5 6C18.6716 6 18 6.67157 18 7.5C18 8.32843 18.6716 9 19.5 9Z" fill="black"/>
<path d="M16.5 6C17.3284 6 18 5.32843 18 4.5C18 3.67157 17.3284 3 16.5 3C15.6716 3 15 3.67157 15 4.5C15 5.32843 15.6716 6 16.5 6Z" fill="black"/>
<path d="M13.5 3C14.3284 3 15 2.32843 15 1.5C15 0.671573 14.3284 0 13.5 0C12.6716 0 12 0.671573 12 1.5C12 2.32843 12.6716 3 13.5 3Z" fill="black"/>
<path d="M16.5 12C17.3284 12 18 11.3284 18 10.5C18 9.67157 17.3284 9 16.5 9C15.6716 9 15 9.67157 15 10.5C15 11.3284 15.6716 12 16.5 12Z" fill="black"/>
<path d="M13.5 15C14.3284 15 15 14.3284 15 13.5C15 12.6716 14.3284 12 13.5 12C12.6716 12 12 12.6716 12 13.5C12 14.3284 12.6716 15 13.5 15Z" fill="black"/>
</svg>
