<svg width="15" height="23" viewBox="0 0 15 23" fill="none" xmlns="http://www.w3.org/2000/svg">
<g clip-path="url(#clip0_1786_1517)">
<path d="M3.7512 23C5.82079 23 7.50045 21.2826 7.50045 19.1666V15.3333H3.7512C1.68162 15.3333 0.00195312 17.0506 0.00195312 19.1666C0.00195312 21.2826 1.68162 23 3.7512 23Z" fill="#0ACF83"/>
<path d="M0.00195312 11.5C0.00195312 9.38402 1.68162 7.66669 3.7512 7.66669H7.50045V15.3334H3.7512C1.68162 15.3334 0.00195312 13.616 0.00195312 11.5Z" fill="#A259FF"/>
<path d="M0.00195312 3.83333C0.00195312 1.71733 1.68162 0 3.7512 0H7.50045V7.66667H3.7512C1.68162 7.66667 0.00195312 5.94933 0.00195312 3.83333Z" fill="#F24E1E"/>
<path d="M7.5 0H11.2493C13.3188 0 14.9985 1.71733 14.9985 3.83333C14.9985 5.94933 13.3188 7.66667 11.2493 7.66667H7.5V0Z" fill="#FF7262"/>
<path d="M14.9985 11.5C14.9985 13.616 13.3188 15.3334 11.2493 15.3334C9.17966 15.3334 7.5 13.616 7.5 11.5C7.5 9.38402 9.17966 7.66669 11.2493 7.66669C13.3188 7.66669 14.9985 9.38402 14.9985 11.5Z" fill="#1ABCFE"/>
</g>
<defs>
<clipPath id="clip0_1786_1517">
<rect width="15" height="23" fill="white"/>
</clipPath>
</defs>
</svg>
